<?xml version="1.0" encoding="utf-8"?>
<!-- Generator: Adobe Illustrator 21.0.0, SVG Export Plug-In . SVG Version: 6.00 Build 0)  -->
<svg version="1.1" id="圖層_1" xmlns="http://www.w3.org/2000/svg" xmlns:xlink="http://www.w3.org/1999/xlink" x="0px" y="0px"
	 viewBox="0 0 291.2 88.3" style="enable-background:new 0 0 291.2 88.3;" xml:space="preserve">
<style type="text/css">
	.st0{fill:#FFFFFF;}
	.st1{fill:#00A29A;}
	.st2{fill:#036EB8;}
	.st3{fill:#172A88;}
	.st4{clip-path:url(#SVGID_2_);fill:#EA5514;}
	.st5{clip-path:url(#SVGID_2_);fill:#EA5614;}
	.st6{clip-path:url(#SVGID_2_);fill:#EA5713;}
	.st7{clip-path:url(#SVGID_2_);fill:#EA5813;}
	.st8{clip-path:url(#SVGID_2_);fill:#EB5913;}
	.st9{clip-path:url(#SVGID_2_);fill:#EB5A12;}
	.st10{clip-path:url(#SVGID_2_);fill:#EB5B12;}
	.st11{clip-path:url(#SVGID_2_);fill:#EB5C12;}
	.st12{clip-path:url(#SVGID_2_);fill:#EB5D12;}
	.st13{clip-path:url(#SVGID_2_);fill:#EB5E11;}
	.st14{clip-path:url(#SVGID_2_);fill:#EB5F11;}
	.st15{clip-path:url(#SVGID_2_);fill:#EC6011;}
	.st16{clip-path:url(#SVGID_2_);fill:#EC6110;}
	.st17{clip-path:url(#SVGID_2_);fill:#EC6210;}
	.st18{clip-path:url(#SVGID_2_);fill:#EC6310;}
	.st19{clip-path:url(#SVGID_2_);fill:#EC640F;}
	.st20{clip-path:url(#SVGID_2_);fill:#EC650F;}
	.st21{clip-path:url(#SVGID_2_);fill:#EC660F;}
	.st22{clip-path:url(#SVGID_2_);fill:#EC670E;}
	.st23{clip-path:url(#SVGID_2_);fill:#ED690E;}
	.st24{clip-path:url(#SVGID_2_);fill:#ED6A0E;}
	.st25{clip-path:url(#SVGID_2_);fill:#ED6B0E;}
	.st26{clip-path:url(#SVGID_2_);fill:#ED6C0D;}
	.st27{clip-path:url(#SVGID_2_);fill:#ED6D0D;}
	.st28{clip-path:url(#SVGID_2_);fill:#ED6E0D;}
	.st29{clip-path:url(#SVGID_2_);fill:#ED6F0C;}
	.st30{clip-path:url(#SVGID_2_);fill:#EE700C;}
	.st31{clip-path:url(#SVGID_2_);fill:#EE710C;}
	.st32{clip-path:url(#SVGID_2_);fill:#EE720B;}
	.st33{clip-path:url(#SVGID_2_);fill:#EE730B;}
	.st34{clip-path:url(#SVGID_2_);fill:#EE740B;}
	.st35{clip-path:url(#SVGID_2_);fill:#EE750B;}
	.st36{clip-path:url(#SVGID_2_);fill:#EE760A;}
	.st37{clip-path:url(#SVGID_2_);fill:#EF770A;}
	.st38{clip-path:url(#SVGID_2_);fill:#EF780A;}
	.st39{clip-path:url(#SVGID_2_);fill:#EF7909;}
	.st40{clip-path:url(#SVGID_2_);fill:#EF7A09;}
	.st41{clip-path:url(#SVGID_2_);fill:#EF7B09;}
	.st42{clip-path:url(#SVGID_2_);fill:#EF7C08;}
	.st43{clip-path:url(#SVGID_2_);fill:#EF7D08;}
	.st44{clip-path:url(#SVGID_2_);fill:#EF7E08;}
	.st45{clip-path:url(#SVGID_2_);fill:#F07F07;}
	.st46{clip-path:url(#SVGID_2_);fill:#F08007;}
	.st47{clip-path:url(#SVGID_2_);fill:#F08107;}
	.st48{clip-path:url(#SVGID_2_);fill:#F08207;}
	.st49{clip-path:url(#SVGID_2_);fill:#F08306;}
	.st50{clip-path:url(#SVGID_2_);fill:#F08406;}
	.st51{clip-path:url(#SVGID_2_);fill:#F08506;}
	.st52{clip-path:url(#SVGID_2_);fill:#F18605;}
	.st53{clip-path:url(#SVGID_2_);fill:#F18705;}
	.st54{clip-path:url(#SVGID_2_);fill:#F18805;}
	.st55{clip-path:url(#SVGID_2_);fill:#F18904;}
	.st56{clip-path:url(#SVGID_2_);fill:#F18A04;}
	.st57{clip-path:url(#SVGID_2_);fill:#F18B04;}
	.st58{clip-path:url(#SVGID_2_);fill:#F18C04;}
	.st59{clip-path:url(#SVGID_2_);fill:#F28D03;}
	.st60{clip-path:url(#SVGID_2_);fill:#F28E03;}
	.st61{clip-path:url(#SVGID_2_);fill:#F28F03;}
	.st62{clip-path:url(#SVGID_2_);fill:#F29002;}
	.st63{clip-path:url(#SVGID_2_);fill:#F29102;}
	.st64{clip-path:url(#SVGID_2_);fill:#F29202;}
	.st65{clip-path:url(#SVGID_2_);fill:#F29301;}
	.st66{clip-path:url(#SVGID_2_);fill:#F29401;}
	.st67{clip-path:url(#SVGID_2_);fill:#F39501;}
	.st68{clip-path:url(#SVGID_2_);fill:#F39601;}
	.st69{clip-path:url(#SVGID_2_);fill:#F39700;}
	.st70{clip-path:url(#SVGID_2_);fill:#F39800;}
</style>
<g>
	<path class="st0" d="M93.4,32.9c1.8,0,3.2-0.5,4.3-1.5c1.1-1,1.6-2.3,1.6-3.9v-9.7h-1.8v9.6c0,1.1-0.4,2.1-1.1,2.8s-1.7,1.1-3,1.1
		s-2.2-0.4-3-1.1c-0.7-0.7-1.1-1.6-1.1-2.8v-9.6h-1.8v9.7c0,1.6,0.5,2.9,1.6,3.9C90.2,32.4,91.6,32.9,93.4,32.9z"/>
	<path class="st0" d="M113.5,28.5c0-1.1-0.3-2-1-2.6c-0.7-0.6-1.8-1.2-3.3-1.5l-1.5-0.4c-1-0.3-1.7-0.6-2.2-0.9
		c-0.4-0.4-0.7-0.8-0.7-1.4c0-0.7,0.3-1.3,0.9-1.8c0.6-0.5,1.4-0.7,2.4-0.7c0.9,0,1.7,0.2,2.3,0.6c0.6,0.4,1,1,1.1,1.8h1.9
		c-0.1-1.2-0.6-2.2-1.6-2.9s-2.2-1.1-3.6-1.1c-1.6,0-2.8,0.4-3.8,1.2c-1,0.8-1.4,1.8-1.4,3.1c0,1.1,0.3,1.9,0.9,2.5s1.6,1.1,2.9,1.5
		l1.9,0.5c1,0.3,1.8,0.6,2.2,1s0.7,0.9,0.7,1.6c0,0.7-0.3,1.3-1,1.8c-0.7,0.5-1.5,0.7-2.5,0.7c-1.1,0-1.9-0.2-2.6-0.7
		s-1.1-1.1-1.2-1.8h-1.9c0.1,1.3,0.6,2.3,1.6,3.1c1,0.8,2.3,1.1,3.9,1.1c1.7,0,3-0.4,4-1.2C113,30.9,113.5,29.8,113.5,28.5z"/>
	<path class="st0" d="M124,25.8v6.7h1.8v-7.2c0-1.3-0.3-2.3-1-3s-1.6-1.1-2.9-1.1c-0.8,0-1.6,0.2-2.2,0.5c-0.6,0.3-1.1,0.8-1.3,1.4
		h-0.2v-6.1h-1.8v15.4h1.8V26c0-0.9,0.3-1.7,0.9-2.3s1.3-0.9,2.3-0.9C123.1,22.9,124,23.9,124,25.8z"/>
	<path class="st0" d="M133.5,32.8c1.6,0,2.8-0.5,3.7-1.5c0.9-1,1.4-2.4,1.4-4.2c0-1.8-0.5-3.2-1.4-4.2s-2.2-1.5-3.7-1.5
		s-2.8,0.5-3.7,1.5s-1.4,2.4-1.4,4.2c0,1.8,0.5,3.2,1.4,4.2C130.7,32.2,131.9,32.8,133.5,32.8z M131.1,24c0.6-0.7,1.4-1.1,2.4-1.1
		s1.9,0.4,2.4,1.1s0.9,1.7,0.9,3.1s-0.3,2.3-0.9,3.1c-0.6,0.7-1.4,1.1-2.4,1.1s-1.9-0.4-2.4-1.1c-0.6-0.7-0.9-1.7-0.9-3.1
		S130.5,24.7,131.1,24z"/>
	<path class="st0" d="M143.1,30.9h0.2c0.3,0.6,0.8,1,1.4,1.4c0.6,0.3,1.3,0.5,2.1,0.5c1.4,0,2.5-0.5,3.4-1.6c0.8-1,1.3-2.4,1.3-4.2
		c0-1.7-0.4-3.1-1.3-4.2c-0.8-1-2-1.6-3.4-1.6c-0.8,0-1.4,0.2-2.1,0.5c-0.6,0.4-1.1,0.9-1.5,1.5h-0.2v-1.8h-1.7v14.7h1.8V30.9z
		 M144,24c0.6-0.7,1.4-1.1,2.4-1.1c1,0,1.8,0.4,2.4,1.1c0.6,0.7,0.9,1.7,0.9,3s-0.3,2.3-0.9,3s-1.4,1.1-2.4,1.1
		c-1,0-1.8-0.4-2.4-1.1c-0.6-0.7-0.9-1.8-0.9-3C143.1,25.8,143.4,24.8,144,24z"/>
	<polygon class="st0" points="158.6,31.8 160.1,31.8 160.1,27.4 164.5,27.4 164.5,25.9 160.1,25.9 160.1,21.4 158.6,21.4 
		158.6,25.9 154.1,25.9 154.1,27.4 158.6,27.4 	"/>
	<path class="st0" d="M104.2,54.9c-1.5-1.3-3.6-2.3-6.4-3.1c-1.8-0.6-3.1-1.2-3.9-1.8s-1.1-1.3-1.1-2.1c0-0.9,0.3-1.7,1-2.3
		s1.7-0.9,2.9-0.9c1.4,0,2.5,0.3,3.3,1s1.2,1.7,1.2,2.9h5l0-0.1c0.1-2.3-0.8-4.2-2.5-5.6s-4-2.1-6.8-2.1c-2.7,0-4.9,0.7-6.6,2
		s-2.6,3-2.6,5.1c0,2.1,0.8,3.7,2.3,4.9s3.8,2.3,6.7,3.1c1.7,0.5,2.9,1.1,3.6,1.7s1,1.4,1,2.4c0,1-0.4,1.7-1.1,2.3s-1.8,0.9-3.1,0.9
		c-1.5,0-2.7-0.4-3.6-1.1s-1.3-1.8-1.3-3.3h-5l0,0.1C87.1,61.6,88,63.6,90,65c2,1.4,4.3,2.1,7.1,2.1c2.8,0,5.1-0.6,6.8-1.9
		c1.7-1.3,2.6-3,2.6-5.2C106.5,57.9,105.7,56.2,104.2,54.9z"/>
	<path class="st0" d="M118.4,63c-0.2,0-0.4,0-0.7,0c-0.5,0-0.9-0.2-1.2-0.5s-0.5-0.8-0.5-1.6v-9.7h3.2v-3.6H116V43h-5.1v4.7h-2.8
		v3.6h2.8V61c0,2.1,0.5,3.7,1.4,4.6s2.3,1.5,4.1,1.5c0.6,0,1.1,0,1.6-0.1s1-0.2,1.5-0.4l-0.4-3.7C118.8,62.9,118.6,62.9,118.4,63z"
		/>
	<path class="st0" d="M130.5,47.3c-2.8,0-5,0.9-6.6,2.7s-2.4,4.1-2.4,7v0.4c0,2.9,0.8,5.2,2.4,7c1.6,1.8,3.8,2.7,6.6,2.7
		c2.8,0,5-0.9,6.6-2.7c1.6-1.8,2.4-4.1,2.4-7V57c0-2.8-0.8-5.2-2.4-7S133.4,47.3,130.5,47.3z M134.4,57.4c0,1.7-0.3,3.1-0.9,4.2
		s-1.6,1.6-2.9,1.6c-1.4,0-2.3-0.5-3-1.6c-0.6-1-0.9-2.4-0.9-4.2V57c0-1.7,0.3-3,0.9-4.1c0.6-1.1,1.6-1.6,2.9-1.6
		c1.3,0,2.3,0.5,2.9,1.6s0.9,2.4,0.9,4.1V57.4z"/>
	<path class="st0" d="M151.9,47.3c-0.9,0-1.7,0.3-2.5,0.8s-1.3,1.3-1.7,2.3l-0.2-2.8h-4.8v19h5.1V53.8c0.3-0.6,0.6-1,1.1-1.3
		s1.1-0.5,1.9-0.5l1.9,0.1l0.5-4.6c-0.2-0.1-0.4-0.1-0.7-0.1S152.1,47.3,151.9,47.3z"/>
	<path class="st0" d="M163,47.3c-2.7,0-4.8,0.9-6.4,2.7s-2.3,4.1-2.3,7v0.7c0,2.7,0.8,5,2.4,6.7c1.6,1.7,3.8,2.6,6.6,2.6
		c1.5,0,3-0.2,4.3-0.6s2.3-0.9,3.1-1.6l-1.4-3.2c-0.9,0.5-1.7,0.8-2.5,1.1s-1.8,0.4-2.9,0.4c-1.4,0-2.4-0.4-3.2-1.2
		s-1.1-1.9-1.2-3.2l0.1-0.1h11.3V56c0-2.6-0.7-4.8-2-6.3S165.5,47.3,163,47.3z M165.9,55.2h-6.3l0-0.1c0.1-1.2,0.5-2.1,1-2.8
		s1.4-1.1,2.4-1.1c1,0,1.8,0.3,2.2,1s0.7,1.5,0.7,2.6V55.2z"/>
	<path class="st0" d="M190.5,54.9c-1.5-1.3-3.6-2.3-6.4-3.1c-1.8-0.6-3.1-1.2-3.9-1.8s-1.1-1.3-1.1-2.1c0-0.9,0.3-1.7,1-2.3
		s1.7-0.9,2.9-0.9c1.4,0,2.5,0.3,3.3,1s1.2,1.7,1.2,2.9h5l0-0.1c0.1-2.3-0.8-4.2-2.5-5.6s-4-2.1-6.8-2.1c-2.7,0-4.9,0.7-6.6,2
		s-2.6,3-2.6,5.1c0,2.1,0.8,3.7,2.3,4.9s3.8,2.3,6.7,3.1c1.7,0.5,2.9,1.1,3.6,1.7s1,1.4,1,2.4c0,1-0.4,1.7-1.1,2.3s-1.8,0.9-3.1,0.9
		c-1.5,0-2.7-0.4-3.6-1.1s-1.3-1.8-1.3-3.3h-5l0,0.1c-0.1,2.7,0.9,4.8,2.9,6.1c2,1.4,4.3,2.1,7.1,2.1c2.8,0,5.1-0.6,6.8-1.9
		c1.7-1.3,2.6-3,2.6-5.2C192.7,57.9,192,56.2,190.5,54.9z"/>
	<polygon class="st0" points="201.6,55.4 211.1,55.4 211.1,51.5 201.6,51.5 201.6,45 212.9,45 212.9,41.1 196.5,41.1 196.5,66.7 
		212.9,66.7 212.9,62.7 201.6,62.7 	"/>
	<polygon class="st0" points="232.1,58.3 232,58.3 221.7,41.1 216.5,41.1 216.5,66.7 221.7,66.7 221.7,49.4 221.8,49.4 232.1,66.7 
		237.2,66.7 237.2,41.1 232.1,41.1 	"/>
	<path class="st0" d="M258.2,54.9c-1.5-1.3-3.6-2.3-6.4-3.1c-1.8-0.6-3.1-1.2-3.9-1.8s-1.1-1.3-1.1-2.1c0-0.9,0.3-1.7,1-2.3
		s1.7-0.9,2.9-0.9c1.4,0,2.5,0.3,3.3,1s1.2,1.7,1.2,2.9h5l0-0.1c0.1-2.3-0.8-4.2-2.5-5.6s-4-2.1-6.8-2.1c-2.7,0-4.9,0.7-6.6,2
		s-2.6,3-2.6,5.1c0,2.1,0.8,3.7,2.3,4.9s3.8,2.3,6.7,3.1c1.7,0.5,2.9,1.1,3.6,1.7s1,1.4,1,2.4c0,1-0.4,1.7-1.1,2.3s-1.8,0.9-3.1,0.9
		c-1.5,0-2.7-0.4-3.6-1.1s-1.3-1.8-1.3-3.3h-5l0,0.1c-0.1,2.7,0.9,4.8,2.9,6.1c2,1.4,4.3,2.1,7.1,2.1c2.8,0,5.1-0.6,6.8-1.9
		c1.7-1.3,2.6-3,2.6-5.2C260.4,57.9,259.7,56.2,258.2,54.9z"/>
	<polygon class="st0" points="269.3,62.7 269.3,55.4 278.8,55.4 278.8,51.5 269.3,51.5 269.3,45 280.6,45 280.6,41.1 264.2,41.1 
		264.2,66.7 280.6,66.7 280.6,62.7 	"/>
</g>
<g>
	<g>
		<polygon class="st1" points="72.9,30.1 41.9,12.3 41.4,41 72.6,60.5 		"/>
	</g>
	<g>
		<polygon class="st2" points="41.9,12.3 27.2,20.3 27.4,43.2 42.5,35.3 		"/>
	</g>
	<g>
		<polygon class="st3" points="27.2,20.3 27.1,54.6 47.3,67.7 58,39.8 		"/>
	</g>
	<g>
		<polygon class="st2" points="58,39.8 42.5,48.8 42.2,81.1 58.4,70.4 		"/>
	</g>
	<g>
		<polygon class="st2" points="23.6,22.5 24.8,38.3 11,29.9 		"/>
	</g>
	<g>
		<polygon class="st2" points="72.9,60.9 72.9,30.1 62.2,37.3 62.1,67.7 		"/>
	</g>
	<g>
		<g>
			<defs>
				<circle id="SVGID_1_" cx="37.6" cy="46.9" r="5.4"/>
			</defs>
			<clipPath id="SVGID_2_">
				<use xlink:href="#SVGID_1_"  style="overflow:visible;"/>
			</clipPath>
			<polygon class="st4" points="43,43.1 37.2,41.5 43,41.5 			"/>
			<polygon class="st4" points="43,43.2 36.8,41.5 37.2,41.5 43,43.1 			"/>
			<polygon class="st5" points="43,43.3 36.3,41.5 36.8,41.5 43,43.2 			"/>
			<polygon class="st6" points="43,43.5 35.8,41.5 36.3,41.5 43,43.3 			"/>
			<polygon class="st7" points="43,43.6 35.4,41.5 35.8,41.5 43,43.5 			"/>
			<polygon class="st8" points="43,43.7 34.9,41.5 35.4,41.5 43,43.6 			"/>
			<polygon class="st9" points="43,43.8 34.5,41.5 34.9,41.5 43,43.7 			"/>
			<polygon class="st10" points="43,44 34,41.5 34.5,41.5 43,43.8 			"/>
			<polygon class="st11" points="43,44.1 33.5,41.5 34,41.5 43,44 			"/>
			<polygon class="st12" points="43,44.2 33.1,41.5 33.5,41.5 43,44.1 			"/>
			<polygon class="st13" points="43,44.4 32.6,41.5 33.1,41.5 43,44.2 			"/>
			<polygon class="st14" points="43,44.5 32.2,41.5 32.6,41.5 43,44.4 			"/>
			<polygon class="st15" points="43,44.6 32.1,41.6 32.1,41.5 32.2,41.5 43,44.5 			"/>
			<polygon class="st16" points="43,44.7 32.1,41.7 32.1,41.6 43,44.6 			"/>
			<polygon class="st17" points="43,44.9 32.1,41.9 32.1,41.7 43,44.7 			"/>
			<polygon class="st18" points="43,45 32.1,42 32.1,41.9 43,44.9 			"/>
			<polygon class="st19" points="43,45.1 32.1,42.1 32.1,42 43,45 			"/>
			<polygon class="st20" points="43,45.2 32.1,42.2 32.1,42.1 43,45.1 			"/>
			<polygon class="st21" points="43,45.4 32.1,42.4 32.1,42.2 43,45.2 			"/>
			<polygon class="st22" points="43,45.5 32.1,42.5 32.1,42.4 43,45.4 			"/>
			<polygon class="st23" points="43,45.6 32.1,42.6 32.1,42.5 43,45.5 			"/>
			<polygon class="st24" points="43,45.7 32.1,42.7 32.1,42.6 43,45.6 			"/>
			<polygon class="st25" points="43,45.9 32.1,42.9 32.1,42.7 43,45.7 			"/>
			<polygon class="st26" points="43,46 32.1,43 32.1,42.9 43,45.9 			"/>
			<polygon class="st27" points="43,46.1 32.1,43.1 32.1,43 43,46 			"/>
			<polygon class="st28" points="43,46.2 32.1,43.2 32.1,43.1 43,46.1 			"/>
			<polygon class="st29" points="43,46.4 32.1,43.4 32.1,43.2 43,46.2 			"/>
			<polygon class="st30" points="43,46.5 32.1,43.5 32.1,43.4 43,46.4 			"/>
			<polygon class="st31" points="43,46.6 32.1,43.6 32.1,43.5 43,46.5 			"/>
			<polygon class="st32" points="43,46.8 32.1,43.8 32.1,43.6 43,46.6 			"/>
			<polygon class="st33" points="43,46.9 32.1,43.9 32.1,43.8 43,46.8 			"/>
			<polygon class="st34" points="43,47 32.1,44 32.1,43.9 43,46.9 			"/>
			<polygon class="st35" points="43,47.1 32.1,44.1 32.1,44 43,47 			"/>
			<polygon class="st36" points="43,47.3 32.1,44.3 32.1,44.1 43,47.1 			"/>
			<polygon class="st37" points="43,47.4 32.1,44.4 32.1,44.3 43,47.3 			"/>
			<polygon class="st38" points="43,47.5 32.1,44.5 32.1,44.4 43,47.4 			"/>
			<polygon class="st39" points="43,47.6 32.1,44.6 32.1,44.5 43,47.5 			"/>
			<polygon class="st40" points="43,47.8 32.1,44.8 32.1,44.6 43,47.6 			"/>
			<polygon class="st41" points="43,47.9 32.1,44.9 32.1,44.8 43,47.8 			"/>
			<polygon class="st42" points="43,48 32.1,45 32.1,44.9 43,47.9 			"/>
			<polygon class="st43" points="43,48.1 32.1,45.1 32.1,45 43,48 			"/>
			<polygon class="st44" points="43,48.3 32.1,45.3 32.1,45.1 43,48.1 			"/>
			<polygon class="st45" points="43,48.4 32.1,45.4 32.1,45.3 43,48.3 			"/>
			<polygon class="st46" points="43,48.5 32.1,45.5 32.1,45.4 43,48.4 			"/>
			<polygon class="st47" points="43,48.6 32.1,45.6 32.1,45.5 43,48.5 			"/>
			<polygon class="st48" points="43,48.8 32.1,45.8 32.1,45.6 43,48.6 			"/>
			<polygon class="st49" points="43,48.9 32.1,45.9 32.1,45.8 43,48.8 			"/>
			<polygon class="st50" points="43,49 32.1,46 32.1,45.9 43,48.9 			"/>
			<polygon class="st51" points="43,49.1 32.1,46.1 32.1,46 43,49 			"/>
			<polygon class="st52" points="43,49.3 32.1,46.3 32.1,46.1 43,49.1 			"/>
			<polygon class="st53" points="43,49.4 32.1,46.4 32.1,46.3 43,49.3 			"/>
			<polygon class="st54" points="43,49.5 32.1,46.5 32.1,46.4 43,49.4 			"/>
			<polygon class="st55" points="43,49.7 32.1,46.7 32.1,46.5 43,49.5 			"/>
			<polygon class="st56" points="43,49.8 32.1,46.8 32.1,46.7 43,49.7 			"/>
			<polygon class="st57" points="43,49.9 32.1,46.9 32.1,46.8 43,49.8 			"/>
			<polygon class="st58" points="43,50 32.1,47 32.1,46.9 43,49.9 			"/>
			<polygon class="st59" points="43,50.2 32.1,47.2 32.1,47 43,50 			"/>
			<polygon class="st60" points="43,50.3 32.1,47.3 32.1,47.2 43,50.2 			"/>
			<polygon class="st61" points="43,50.4 32.1,47.4 32.1,47.3 43,50.3 			"/>
			<polygon class="st62" points="43,50.5 32.1,47.5 32.1,47.4 43,50.4 			"/>
			<polygon class="st63" points="43,50.7 32.1,47.7 32.1,47.5 43,50.5 			"/>
			<polygon class="st64" points="43,50.8 32.1,47.8 32.1,47.7 43,50.7 			"/>
			<polygon class="st65" points="43,50.9 32.1,47.9 32.1,47.8 43,50.8 			"/>
			<polygon class="st66" points="43,51 32.1,48 32.1,47.9 43,50.9 			"/>
			<polygon class="st67" points="43,51.2 32.1,48.2 32.1,48 43,51 			"/>
			<polygon class="st68" points="43,51.3 32.1,48.3 32.1,48.2 43,51.2 			"/>
			<polygon class="st69" points="43,51.4 32.1,48.4 32.1,48.3 43,51.3 			"/>
			<polygon class="st70" points="43,51.5 32.1,48.5 32.1,48.4 43,51.4 			"/>
			<polygon class="st70" points="32.1,48.5 43,51.5 43,52.4 32.1,52.4 			"/>
		</g>
	</g>
	<g>
		<polygon class="st1" points="42.5,48.8 11,29.9 10.5,60.5 42.2,81.1 		"/>
	</g>
</g>
</svg>
