<?xml version="1.0" encoding="UTF-8"?>
<svg width="22px" height="22px" viewBox="0 0 22 22" version="1.1" xmlns="http://www.w3.org/2000/svg" xmlns:xlink="http://www.w3.org/1999/xlink">
    <!-- Generator: Sketch 46 (44423) - http://www.bohemiancoding.com/sketch -->
    <title>icon_arrow_off</title>
    <desc>Created with Sketch.</desc>
    <defs></defs>
    <g id="PC" stroke="none" stroke-width="1" fill="none" fill-rule="evenodd">
        <g id="數據分析" transform="translate(-33.000000, -757.000000)" fill="#8190B0">
            <path d="M48.8124294,767.3125 L44.6874478,767.3125 L44.6874478,763.1875 C44.6874478,762.808393 44.3800385,762.5 43.9999509,762.5 C43.6208454,762.5 43.312454,762.808393 43.312454,763.1875 L43.312454,767.3125 L39.1874724,767.3125 C38.8073848,767.3125 38.4999754,767.619911 38.4999754,768 C38.4999754,768.380089 38.8073848,768.6875 39.1874724,768.6875 L43.312454,768.6875 L43.312454,772.8125 C43.312454,773.192589 43.6208454,773.5 43.9999509,773.5 C44.3800385,773.5 44.6874478,773.192589 44.6874478,772.8125 L44.6874478,768.6875 L48.8124294,768.6875 C49.192517,768.6875 49.4999263,768.380089 49.4999263,768 C49.4999263,767.619911 49.192517,767.3125 48.8124294,767.3125 M43.9999509,777.646607 C38.6924746,777.646607 34.3749939,773.3075 34.3749939,768 C34.3749939,762.6925 38.6924746,758.375 43.9999509,758.375 C49.3074272,758.375 53.6249079,762.6925 53.6249079,768 C53.6249079,773.3075 49.3074272,777.646607 43.9999509,777.646607 M43.9999509,757 C37.9254244,757 33,761.925446 33,768 C33,774.075536 37.9254244,779 43.9999509,779 C50.0754595,779 54.9999018,774.075536 54.9999018,768 C54.9999018,761.925446 50.0754595,757 43.9999509,757" id="icon_arrow_off"></path>
        </g>
    </g>
</svg>