<?xml version="1.0" encoding="UTF-8"?>
<svg width="24px" height="24px" viewBox="0 0 24 24" version="1.1" xmlns="http://www.w3.org/2000/svg" xmlns:xlink="http://www.w3.org/1999/xlink">
    <!-- Generator: Sketch 46 (44423) - http://www.bohemiancoding.com/sketch -->
    <title>icon_alert_on</title>
    <desc>Created with Sketch.</desc>
    <defs></defs>
    <g id="PC" stroke="none" stroke-width="1" fill="none" fill-rule="evenodd">
        <g id="icon_alert-copy">
            <g id="icon_alert">
                <g id="Group" transform="translate(0.086957, 0.086957)">
                    <g id="icon_alert_on">
                        <g id="Group-17">
                            <path d="M11.197948,23.2701217 C8.31161932,23.2701677 5.42529064,23.2703516 2.53896196,23.2700297 C2.02522965,23.2699837 1.84225081,23.0901301 1.84128316,22.585151 C1.84040766,22.1101552 1.83718215,21.6351593 1.84225081,21.1602095 C1.85358619,20.1015515 2.64010488,19.3167438 3.69729032,19.3162379 C8.70227521,19.3141225 13.7072601,19.3137087 18.712245,19.3155481 C19.7641774,19.315916 20.5594511,20.1167271 20.5621237,21.1662337 C20.5634139,21.6564971 20.5630913,22.1468065 20.5616168,22.6371159 C20.5603266,23.0640557 20.3551378,23.2695699 19.9260061,23.2696618 C17.016638,23.2704436 14.1073161,23.2700757 11.197948,23.2701217" id="Fill-1" fill="#FFFFFF"></path>
                            <path d="M11.0382484,1.83957295 C11.0382484,1.39626192 11.0364514,0.952904894 11.0388475,0.509593857 C11.0405524,0.187227637 11.2057909,-0.00522637669 11.4691311,0.000108071473 C11.7228409,0.00521258652 11.882043,0.193665764 11.8829185,0.503937503 C11.8853607,1.39055958 11.8842548,2.27722764 11.8841627,3.16384971 C11.8841627,3.20965239 11.8841627,3.25596091 11.8775734,3.30111978 C11.8424614,3.54277948 11.6711865,3.69117831 11.4405162,3.6822569 C11.2155596,3.67356543 11.0481093,3.5131181 11.0424416,3.26120339 C11.0318435,2.78754118 11.0394004,2.31346509 11.0394004,1.83957295 L11.0382484,1.83957295 Z" id="Fill-3" fill="#FFFFFF"></path>
                            <path d="M8.37507862,3.94464921 C8.35581769,4.17821526 8.26043462,4.32367094 8.0533105,4.36974954 C7.84010399,4.41716175 7.66910564,4.34206559 7.57888339,4.14225372 C7.43106266,3.8150589 7.29720381,3.48156392 7.15758511,3.15064419 C6.93479421,2.62253382 6.71029839,2.09515924 6.49013398,1.56594519 C6.37369291,1.28616258 6.4570955,1.04877964 6.69711986,0.952897534 C6.93041672,0.859728637 7.14551247,0.965451881 7.26070942,1.23741676 C7.61238266,2.0677972 7.96230491,2.89895941 8.31070657,3.73067345 C8.34263916,3.80696526 8.35890497,3.88978717 8.37507862,3.94464921" id="Fill-5" fill="#FFFFFF"></path>
                            <path d="M15.6864607,1.35304636 C15.6698263,1.4085982 15.6513487,1.49063834 15.6210749,1.5681258 C15.2954823,2.40108148 14.9692906,3.23376125 14.6404724,4.06542931 C14.532003,4.33973951 14.3504987,4.44835991 14.113193,4.39253215 C13.8810481,4.33794603 13.7315224,4.09348115 13.8234496,3.85444269 C14.1718973,2.94850623 14.529699,2.04601877 14.8969008,1.14753215 C14.9792897,0.945926799 15.1692264,0.884580645 15.3798525,0.93815506 C15.5756413,0.987958571 15.6628223,1.13318432 15.6864607,1.35304636" id="Fill-7" fill="#FFFFFF"></path>
                            <path d="M3.91739225,9.34008628 C3.86698206,9.323853 3.77749707,9.30348093 3.69506214,9.26710551 C2.88338443,8.90886972 2.07253615,8.54856454 1.26210257,8.18752357 C0.965954255,8.05563394 0.853614191,7.83209297 0.957798311,7.59084715 C1.05852652,7.35755701 1.30463329,7.29335969 1.60483654,7.42598511 C2.43043003,7.79075099 3.25616176,8.15519497 4.08009642,8.52363979 C4.31325504,8.62789146 4.40426063,8.79657039 4.35348182,9.01749012 C4.30625107,9.2227744 4.16607942,9.32320919 3.91739225,9.34008628" id="Fill-9" fill="#FFFFFF"></path>
                            <path d="M1.85181632,11.0376535 C2.30490896,11.0375155 2.7580016,11.0354461 3.21109424,11.0382513 C3.50162095,11.0400908 3.69229494,11.2052747 3.69538222,11.4488659 C3.69851557,11.6942965 3.50834845,11.8699654 3.22173844,11.8708391 C2.300255,11.8736903 1.37872549,11.8734144 0.457195976,11.8708851 C0.184732152,11.8701493 0.00341215451,11.7013784 4.84035979e-05,11.4596727 C-0.00345358365,11.2103333 0.183349789,11.0398149 0.46949901,11.0384353 C0.930286807,11.0361359 1.39102852,11.0377914 1.85181632,11.0376535" id="Fill-11" fill="#FFFFFF"></path>
                            <path d="M21.1654787,11.0375973 C21.6185252,11.0374133 22.0716179,11.0356198 22.5246644,11.0380571 C22.8201215,11.0396667 23.0039759,11.1970789 23.0090906,11.4448088 C23.0144358,11.7024718 22.8261579,11.8707369 22.520932,11.8713347 C21.6147928,11.8731282 20.7086536,11.8727603 19.8025144,11.8714267 C19.512172,11.8710128 19.3218667,11.7093698 19.3145862,11.4639392 C19.3070754,11.2135881 19.5066426,11.0390688 19.8062468,11.0381491 C20.2593394,11.0367235 20.712386,11.0377812 21.1654787,11.0375973" id="Fill-13" fill="#FFFFFF"></path>
                            <path d="M17.7441293,17.5702877 C17.6479629,17.5909817 17.5461748,17.5913036 17.4468751,17.5913496 C15.5887944,17.5924533 13.7306215,17.5921774 11.8724947,17.5921774 C10.0220631,17.5921774 8.17158537,17.5921774 6.32115373,17.5920854 C6.24438649,17.5920854 6.16720453,17.5958103 6.09089807,17.5895561 C5.83705007,17.5689082 5.65955462,17.390756 5.663287,17.1650536 C5.6669733,16.9386155 5.84539033,16.7569224 6.10149619,16.7527376 C6.64646992,16.7438622 7.19172012,16.7491506 7.73687816,16.7491046 C10.9617476,16.7490127 14.186571,16.7489207 17.4114405,16.7497485 C17.5185276,16.7497944 17.628149,16.7468513 17.7321949,16.7675453 C17.9373376,16.8084274 18.0511061,16.9422025 18.062165,17.1524073 C18.0730857,17.359577 17.9494102,17.5261406 17.7441293,17.5702877 M7.63485974,9.06285464 C8.8505101,7.56911718 10.4422094,6.80546333 12.3632798,6.71238641 C12.4170076,6.71238641 12.4709198,6.70962721 12.5244634,6.71284628 C12.7636583,6.72742404 12.9347027,6.89518323 12.9406469,7.11895414 C12.9470058,7.35845246 12.784532,7.53623675 12.5262144,7.54400848 C11.8302865,7.56502437 11.1558314,7.68017487 10.5064432,7.94073507 C8.4768112,8.75492822 7.12836179,10.6974951 7.08615363,12.8783647 C7.08034771,13.1765879 6.97422828,13.3389667 6.75521584,13.3848153 C6.46731562,13.4451498 6.2482571,13.2474533 6.25148262,12.9210403 C6.2658592,11.4758647 6.72383619,10.182353 7.63485974,9.06285464 M19.1222073,14.2390168 C19.111471,13.3367593 19.143035,12.4215796 19.0054898,11.5354173 C18.3847165,7.53697253 14.3501046,4.81612805 10.3896796,5.67823925 C6.97814497,6.4209232 4.62319678,9.31145832 4.60398193,12.7966005 C4.59333773,14.7199909 4.60186231,16.6434734 4.60241525,18.5669098 C4.60241525,18.6337284 4.60974178,18.7005929 4.61430358,18.7786782 L19.1263544,18.7786782 C19.1263544,18.6883145 19.1263084,18.6131724 19.1263544,18.5379842 C19.1264927,17.1049491 19.1393026,15.671822 19.1222073,14.2390168" id="Fill-15" fill="#FFFFFF"></path>
                            <path d="M3.67892977,3.67892977 L5.81560278,5.81132943" id="Stroke-17" stroke="#FFFFFF" stroke-width="0.84645" stroke-linecap="round" stroke-linejoin="round"></path>
                            <path d="M17.4749164,5.8949791 L19.6954067,3.67892977" id="Stroke-19" stroke="#FFFFFF" stroke-width="0.760662293" stroke-linecap="round" stroke-linejoin="round"></path>
                            <path d="M19.3143813,8.59982023 L22.1144505,7.35785953" id="Stroke-21" stroke="#FFFFFF" stroke-width="0.67716" stroke-linecap="round" stroke-linejoin="round"></path>
                        </g>
                    </g>
                </g>
            </g>
        </g>
    </g>
</svg>