<?xml version="1.0" encoding="UTF-8"?>
<svg width="22px" height="21px" viewBox="0 0 22 21" version="1.1" xmlns="http://www.w3.org/2000/svg" xmlns:xlink="http://www.w3.org/1999/xlink">
    <!-- Generator: Sketch 46 (44423) - http://www.bohemiancoding.com/sketch -->
    <title>icon_dashboard</title>
    <desc>Created with Sketch.</desc>
    <defs></defs>
    <g id="PC" stroke="none" stroke-width="1" fill="none" fill-rule="evenodd">
        <g id="數據分析" transform="translate(-33.000000, -156.000000)" fill="#8190B0">
            <g id="icon_dashboard" transform="translate(33.000000, 156.000000)">
                <path d="M11,8.84210526 C9.79,8.84210526 8.8,9.83684211 8.8,11.0526316 C8.8,12.2684211 9.79,13.2631579 11,13.2631579 C12.21,13.2631579 13.2,12.2684211 13.2,11.0526316 C13.2,9.83684211 12.21,8.84210526 11,8.84210526 L11,8.84210526 Z M17.6,11.0526316 C17.6,7.40526316 14.63,4.42105263 11,4.42105263 C7.37,4.42105263 4.4,7.40526316 4.4,11.0526316 C4.4,13.4842105 5.72,15.5842105 7.7,16.8 L8.8,14.9210526 C7.48,14.1473684 6.6,12.7105263 6.6,11.1631579 C6.6,8.73157895 8.58,6.74210526 11,6.74210526 C13.42,6.74210526 15.4,8.73157895 15.4,11.1631579 C15.4,12.8210526 14.52,14.2578947 13.2,14.9210526 L14.3,16.8 C16.28,15.5842105 17.6,13.4842105 17.6,11.0526316 L17.6,11.0526316 Z M11,0 C4.95,0 0,4.97368421 0,11.0526316 C0,15.1421053 2.2,18.6789474 5.5,20.5578947 L6.6,18.6789474 C3.96,17.1315789 2.2,14.2578947 2.2,11.0526316 C2.2,6.18947368 6.16,2.21052632 11,2.21052632 C15.84,2.21052632 19.8,6.18947368 19.8,11.0526316 C19.8,14.3684211 18.04,17.1315789 15.4,18.6789474 L16.5,20.5578947 C19.8,18.6789474 22,15.0315789 22,11.0526316 C22,4.97368421 17.05,0 11,0 L11,0 Z" id="Shape"></path>
            </g>
        </g>
    </g>
</svg>