<?xml version="1.0" encoding="UTF-8"?>
<svg width="22px" height="22px" viewBox="0 0 22 22" version="1.1" xmlns="http://www.w3.org/2000/svg" xmlns:xlink="http://www.w3.org/1999/xlink">
    <!-- Generator: Sketch 46 (44423) - http://www.bohemiancoding.com/sketch -->
    <title>icon_add_on</title>
    <desc>Created with Sketch.</desc>
    <defs></defs>
    <g id="PC" stroke="none" stroke-width="1" fill="none" fill-rule="evenodd">
        <path d="M15.8124294,10.3125 L11.6874478,10.3125 L11.6874478,6.1875 C11.6874478,5.80839286 11.3800385,5.5 10.9999509,5.5 C10.6208454,5.5 10.312454,5.80839286 10.312454,6.1875 L10.312454,10.3125 L6.18747238,10.3125 C5.80738479,10.3125 5.49997545,10.6199107 5.49997545,11 C5.49997545,11.3800893 5.80738479,11.6875 6.18747238,11.6875 L10.312454,11.6875 L10.312454,15.8125 C10.312454,16.1925893 10.6208454,16.5 10.9999509,16.5 C11.3800385,16.5 11.6874478,16.1925893 11.6874478,15.8125 L11.6874478,11.6875 L15.8124294,11.6875 C16.192517,11.6875 16.4999263,11.3800893 16.4999263,11 C16.4999263,10.6199107 16.192517,10.3125 15.8124294,10.3125 M10.9999509,20.6466071 C5.69247459,20.6466071 1.37499386,16.3075 1.37499386,11 C1.37499386,5.6925 5.69247459,1.375 10.9999509,1.375 C16.3074272,1.375 20.6249079,5.6925 20.6249079,11 C20.6249079,16.3075 16.3074272,20.6466071 10.9999509,20.6466071 M10.9999509,0 C4.92542444,0 0,4.92544643 0,11 C0,17.0755357 4.92542444,22 10.9999509,22 C17.0754595,22 21.9999018,17.0755357 21.9999018,11 C21.9999018,4.92544643 17.0754595,0 10.9999509,0" id="icon_add_on" fill="#FFFFFF"></path>
    </g>
</svg>